<svg xmlns="http://www.w3.org/2000/svg" fill="none" viewBox="-8.93 -8.93 250 250" id="Collaborations-Idea--Streamline-Core.svg" height="250" width="250"><desc>Collaborations Idea Streamline Icon: https://streamlinehq.com</desc><g id="collaborations-idea--collaborations-idea-work"><path id="Vector" fill="#d7e0ff" d="M69.54251142857143 134.21008285714285a30.841457142857145 30.841457142857145 0 1 0 0 -61.666332857142855 30.841457142857145 30.841457142857145 0 0 0 0 61.666332857142855Z" stroke-width="17.86"></path><path id="Vector_2" fill="#d7e0ff" d="M16.58142857142857 194.08562142857141a61.01965714285714 61.01965714285714 0 0 0 -7.909341428571428 29.415454285714286h121.77401142857143a61.01965714285714 61.01965714285714 0 0 0 -7.909341428571428 -29.415454285714286 61.53368142857143 61.53368142857143 0 0 0 -52.97766428571428 -30.974108571428573A61.53368142857143 61.53368142857143 0 0 0 16.58142857142857 194.08562142857141Z" stroke-width="17.86"></path><path id="Vector_3" fill="#ffffff" d="M197.65062857142857 83.8688657142857a34.07483571428572 34.07483571428572 0 0 0 -34.42304571428571 -33.85927714285714 34.07483571428572 34.07483571428572 0 0 0 -33.013624285714286 35.268698571428565 34.27381285714286 34.27381285714286 0 0 0 18.67068857142857 28.685871428571428v16.58142857142857a3.763984285714286 3.763984285714286 0 0 0 3.7474028571428573 3.6479142857142857h22.567324285714285a3.763984285714286 3.763984285714286 0 0 0 3.763984285714286 -3.6479142857142857V113.66569285714286a34.30697571428571 34.30697571428571 0 0 0 18.703851428571426 -29.79682714285714Z" stroke-width="17.86"></path><path id="Vector_4" stroke="#4147d5" stroke-linecap="round" stroke-linejoin="round" d="M69.54251142857143 134.21008285714285a30.841457142857145 30.841457142857145 0 1 0 0 -61.666332857142855 30.841457142857145 30.841457142857145 0 0 0 0 61.666332857142855Z" stroke-width="17.86"></path><path id="Vector_5" stroke="#4147d5" stroke-linecap="round" stroke-linejoin="round" d="M8.672087142857142 223.5010757142857A61.01965714285714 61.01965714285714 0 0 1 16.58142857142857 194.06904a61.53368142857143 61.53368142857143 0 0 1 52.97766428571428 -30.974108571428573c21.72167142857143 0.04974428571428571 42.282642857142854 12.05469857142857 52.97766428571428 30.974108571428573a61.01965714285714 61.01965714285714 0 0 1 7.909341428571428 29.415454285714286" stroke-width="17.86"></path><path id="Vector 606" stroke="#4147d5" stroke-linecap="round" stroke-linejoin="round" d="M163.9405842857143 22.932115714285715v-13.596771428571428" stroke-width="17.86"></path><path id="Vector 610" stroke="#4147d5" stroke-linecap="round" stroke-linejoin="round" d="m210.35200285714285 39.62961428571429 11.126138571428571 -7.8098528571428565" stroke-width="17.86"></path><path id="Vector 611" stroke="#4147d5" stroke-linecap="round" stroke-linejoin="round" d="m117.49600285714286 39.62961428571429 -11.14272 -7.8098528571428565" stroke-width="17.86"></path><path id="Vector_6" stroke="#4147d5" stroke-linecap="round" stroke-linejoin="round" d="M197.65062857142857 83.8688657142857a34.07483571428572 34.07483571428572 0 0 0 -34.43962714285714 -33.85927714285714 34.07483571428572 34.07483571428572 0 0 0 -32.99704285714286 35.268698571428565 34.27381285714286 34.27381285714286 0 0 0 18.67068857142857 28.685871428571428v16.58142857142857a3.763984285714286 3.763984285714286 0 0 0 3.7474028571428573 3.6479142857142857h22.567324285714285a3.763984285714286 3.763984285714286 0 0 0 3.763984285714286 -3.6479142857142857V113.66569285714286a34.32355714285714 34.32355714285714 0 0 0 18.703851428571426 -29.79682714285714Z" stroke-width="17.86"></path></g></svg>